<svg width="128" height="128" viewBox="0 0 128 128" fill="none" xmlns="http://www.w3.org/2000/svg">
<g clip-path="url(#clip0_2054_189)">
<path d="M95.984 96H90.6613C90.6613 87.7227 90.9813 86.5333 85.968 85.3707C78.2987 83.6 71.0507 81.9307 68.4053 76.1493C67.4453 74.0373 66.8 70.56 69.232 65.9787C74.6773 55.6907 76.0427 46.8693 72.976 41.776C69.392 35.8293 58.5387 35.8027 54.9227 41.8667C51.8507 47.0293 53.2373 55.8027 58.7253 65.9307C61.2053 70.496 60.5813 73.984 59.6213 76.1067C57.008 81.9147 49.8293 83.5733 42.224 85.3227C36.9867 86.5333 37.3173 87.6427 37.3173 96H32.0107L32 92.6773C32 85.9627 32.5333 82.0907 40.4693 80.256C49.44 78.1813 58.304 76.3307 54.0427 68.4747C41.424 45.1947 50.4373 32 63.9893 32C77.28 32 86.5333 44.7093 73.9467 68.4747C69.8133 76.2827 78.3413 78.1387 87.52 80.256C95.4667 82.0907 95.9947 85.9733 95.9947 92.6987L95.984 96ZM121.637 84.192C114.763 82.6027 108.363 81.2107 111.461 75.3547C120.901 57.5307 113.968 48 103.995 48C97.248 48 92.0053 52.3573 92.0053 60.4C92.0053 67.168 95.0667 72 96.8267 76H102.416C101.509 72 94.5973 62.336 98.3307 56.0747C100.528 52.384 107.419 52.3787 109.605 56.0107C111.632 59.376 110.571 65.6747 106.757 72.8693C104.688 76.7787 105.264 79.808 106.112 81.6587C107.739 85.2107 111.323 86.9227 115.376 88.1013C123.413 90.4533 122.672 88.3253 122.672 95.9947H127.989L128 93.5253C128 88.4853 127.605 85.568 121.637 84.192ZM0.0106667 96H5.328C5.328 88.3307 4.58667 90.4587 12.624 88.1067C16.6827 86.928 20.2667 85.216 21.888 81.664C22.736 79.808 23.312 76.784 21.2427 72.8747C17.4293 65.68 16.368 59.3813 18.3947 56.016C20.5813 52.3787 27.472 52.384 29.6693 56.08C33.4027 62.3467 26.4907 72.0053 25.584 76.0053H31.1733C32.9333 72.0053 35.9947 67.1733 35.9947 60.4053C36 52.3573 30.7573 48 24.0107 48C14.0373 48 7.104 57.5307 16.544 75.3547C19.6427 81.216 13.2427 82.6027 6.368 84.192C0.394667 85.568 0 88.4853 0 93.5307L0.0106667 96Z" fill="#F2F2F2"/>
</g>
<defs>
<clipPath id="clip0_2054_189">
<rect width="128" height="128" fill="white"/>
</clipPath>
</defs>
</svg>
