<svg width="128" height="128" viewBox="0 0 128 128" fill="none" xmlns="http://www.w3.org/2000/svg">
<g clip-path="url(#clip0_2054_192)">
<path d="M64 10.6667C93.408 10.6667 117.333 34.592 117.333 64C117.333 93.408 93.408 117.333 64 117.333C34.592 117.333 10.6667 93.408 10.6667 64C10.6667 34.592 34.592 10.6667 64 10.6667ZM64 0C28.656 0 0 28.656 0 64C0 99.344 28.656 128 64 128C99.344 128 128 99.344 128 64C128 28.656 99.344 0 64 0ZM48 90.6667V37.3333L96 64.7787L48 90.6667Z" fill="#F2F2F2"/>
</g>
<defs>
<clipPath id="clip0_2054_192">
<rect width="128" height="128" fill="white"/>
</clipPath>
</defs>
</svg>
