<svg width="80" height="80" viewBox="0 0 80 80" fill="none" xmlns="http://www.w3.org/2000/svg">
<path d="M35.1 35.7667C34.7667 34.7333 34.4667 33.7333 34.1333 32.7C33.8 31.6667 33.5 30.7 33.2333 29.7333C32.9667 28.8 32.7333 27.9333 32.5 27.1333H32.4333C32.1333 28.5667 31.7667 30 31.3 31.4333C30.8 33.0333 30.3 34.7 29.7667 36.3667C29.3 38.0667 28.8 39.6333 28.3 41.0333H36.7667C36.5667 40.33 36.3 39.5 36 38.63C35.7 37.7333 35.4 36.7667 35.1 35.7667ZM65.8333 1H14.1667C6.33333 1 0 7.33333 0 15.1667V64.8333C0 72.6667 6.33333 79 14.1667 79H65.8333C73.6667 79 80 72.6667 80 64.8333V15.1667C80 7.33333 73.6667 1 65.8333 1ZM49 56.1H42.03C41.8 56.1333 41.5667 55.9667 41.5 55.7333L38.7667 47.8H26.3667L23.8333 55.6333C23.7667 55.9333 23.5 56.1333 23.2 56.1033H16.9333C16.5667 56.1033 16.4667 55.9 16.5667 55.5033L27.3 24.6C27.4 24.2667 27.5 23.9 27.6333 23.5C27.7667 22.8 27.8333 22.0667 27.8333 21.3333C27.8 21.1667 27.9333 21 28.1 20.9667H36.7333C37 20.9667 37.1333 21.0667 37.1667 21.2333L49.3333 55.5667C49.4333 55.93 49.3333 56.1 49 56.1ZM60.3333 55.6C60.3333 55.9667 60.2033 56.1333 59.9033 56.1333H53.3667C53.0333 56.1333 52.8667 55.93 52.8667 55.6V29.9333C52.8667 29.6 53.0033 29.4667 53.3033 29.4667H59.9033C60.2033 29.4667 60.3333 29.6333 60.3333 29.9333V55.6ZM59.6367 25.5C58.8667 26.3 57.7333 26.7333 56.6 26.6667C55.5 26.7 54.4333 26.2667 53.63 25.5C52.8633 24.6667 52.4633 23.5667 52.4967 22.4333C52.4633 21.3 52.8967 20.2333 53.6933 19.4667C54.5 18.7 55.5667 18.3 56.6667 18.3C57.97 18.3 58.9633 18.7 59.7 19.4667C60.4333 20.2667 60.8333 21.3333 60.8 22.4333C60.8333 23.5667 60.4333 24.6667 59.6367 25.5Z" fill="#F2F2F2"/>
</svg>
