<svg width="80" height="80" viewBox="0 0 80 80" fill="none" xmlns="http://www.w3.org/2000/svg">
<g clip-path="url(#clip0_2045_35)">
<path d="M0 0V80H80V0H0ZM59.63 9.63C64.4433 9.63 68.52 11.11 71.8533 13.89L68.15 19.4467C65.1867 17.41 62.41 16.1133 59.63 16.1133C56.85 16.1133 55.37 17.41 55.37 19.0767V19.2633C55.37 21.4867 56.85 22.2267 62.4067 23.7067C69.0733 25.56 72.7767 27.9667 72.7767 33.7067V33.8933C72.7767 40.56 67.7767 44.2633 60.74 44.2633C55.74 44.0767 50.74 42.2267 46.85 38.7067L51.11 33.52C54.0733 35.9267 57.22 37.5933 60.9233 37.5933C63.8867 37.5933 65.5533 36.4833 65.5533 34.4467V34.26C65.5533 32.4067 64.4433 31.4833 58.8867 30C52.22 28.3333 48.1467 26.48 48.1467 19.8133V19.6267C48.1467 13.5167 52.96 9.62667 59.6267 9.62667L59.63 9.63ZM5.92667 10.37H13.52L18.52 29.63L24.26 10.37H29.8167L35.3733 29.63L40.3733 10.37H48.15L38.7067 43.5167H32.41L27.04 24.2567L21.4833 43.5167H15.3733L5.93 10.37H5.92667ZM7.59333 65H37.5933V70H7.59333V65Z" fill="#F2F2F2"/>
</g>
<defs>
<clipPath id="clip0_2045_35">
<rect width="80" height="80" fill="white"/>
</clipPath>
</defs>
</svg>
