<svg width="80" height="80" viewBox="0 0 80 80" fill="none" xmlns="http://www.w3.org/2000/svg">
<path d="M52.84 29.9367H37.5467V0H52.84C61.0933 0 67.8067 6.71333 67.8067 14.9667C67.8067 23.22 61.0933 29.9367 52.84 29.9367ZM42.45 25.0333H52.84C58.39 25.0333 62.9033 20.5167 62.9033 14.97C62.9033 9.42333 58.3867 4.90667 52.84 4.90667H42.45V25.0333ZM42.45 29.9367H27.16C18.9067 29.9367 12.1933 23.2233 12.1933 14.97C12.1933 6.71667 18.9067 0 27.16 0H42.4533V29.9367H42.45ZM27.16 4.90333C21.61 4.90333 17.0967 9.42 17.0967 14.9667C17.0967 20.5133 21.61 25.0333 27.16 25.0333H37.55V4.90333H27.16ZM42.45 54.9667H27.16C18.9067 54.9667 12.1933 48.2533 12.1933 40C12.1933 31.7467 18.9067 25.0333 27.16 25.0333H42.4533V54.9667H42.45ZM27.16 29.9367C21.61 29.9367 17.0967 34.4533 17.0967 40C17.0967 45.5467 21.6133 50.0633 27.16 50.0633H37.55V29.9367H27.16ZM27.24 80C18.9433 80 12.19 73.2867 12.19 65.0333C12.19 56.78 18.9033 50.0667 27.1567 50.0667H42.45V64.87C42.45 73.2133 35.6267 80 27.24 80ZM27.16 54.9667C24.4921 54.9702 21.9345 56.0316 20.048 57.918C18.1616 59.8045 17.1002 62.3621 17.0967 65.03C17.0967 70.58 21.6467 75.0933 27.2433 75.0933C32.9267 75.0933 37.5533 70.5067 37.5533 64.8667V54.9667H27.16ZM52.84 54.9667H52.5133C44.26 54.9667 37.5467 48.2533 37.5467 40C37.5467 31.7467 44.26 25.0333 52.5133 25.0333H52.84C61.0933 25.0333 67.8067 31.7467 67.8067 40C67.8067 48.2533 61.0933 54.9667 52.84 54.9667ZM52.5167 29.9367C46.9667 29.9367 42.4533 34.4533 42.4533 40C42.4533 45.5467 46.97 50.0633 52.5167 50.0633H52.8433C58.3933 50.0633 62.9067 45.5467 62.9067 40C62.9067 34.4533 58.39 29.9367 52.8433 29.9367H52.5167Z" fill="#F2F2F2"/>
</svg>
