<svg xmlns="http://www.w3.org/2000/svg" viewBox="0 0 506.09 174.85"><defs><style>.cls-1{fill:#f2f2f2;}.cls-2{fill:#eddc60;}</style></defs><g id="X"><polygon class="cls-1" points="393.41 87.23 336.24 174.41 392.35 174.41 421.12 129.94 421.12 44.18 392.47 0 336.47 0 393.41 87.23"/><polygon class="cls-1" points="448.91 87.68 506.09 174.85 449.97 174.85 421.21 130.38 421.21 44.62 449.85 0.44 505.85 0.44 448.91 87.68"/></g><g id="L"><polygon class="cls-1" points="254.82 0.23 311.53 0.23 251.29 134.35 320.71 134.35 300.5 174.71 176.24 174.71 254.82 0.23"/></g><g id="Calque_5" data-name="Calque 5"><polygon class="cls-1" points="0 173.88 56.94 173.88 83.77 113.88 157.65 113.88 177.18 74.35 100.71 74.35 115.77 41.41 59.77 41.41 0 173.88"/><polygon class="cls-2" points="78.12 0.71 239.06 0.71 219.29 42.12 59.53 42.12 78.12 0.71"/></g></svg>