<svg width="80" height="80" viewBox="0 0 80 80" fill="none" xmlns="http://www.w3.org/2000/svg">
<g clip-path="url(#clip0_2151_61)">
<path d="M41.6998 44.0466C41.8531 41.38 43.1598 39.0266 45.1331 37.36C47.2035 35.6403 49.8151 34.7076 52.5065 34.7266C55.3398 34.7266 57.9431 35.7266 59.8765 37.36C61.8498 39.0266 63.1531 41.38 63.3031 44.0433C63.4531 46.7866 62.3531 49.33 60.4198 51.22C58.2903 53.2537 55.4509 54.3756 52.5065 54.3466C49.56 54.3759 46.7184 53.2541 44.5865 51.22C42.6531 49.33 41.5531 46.7866 41.7031 44.0466M24.4998 49.4366C24.5198 50.4833 24.8531 52.51 25.3531 54.0966C26.4325 57.5102 28.2448 60.6467 30.6631 63.2866C33.2566 66.1382 36.4221 68.4109 39.9531 69.9566C43.7961 71.6507 47.9535 72.514 52.1531 72.49C56.3521 72.4983 60.5058 71.6214 64.3431 69.9166C67.8716 68.3563 71.034 66.0739 73.6265 63.2166C76.0408 60.568 77.8514 57.4268 78.9331 54.01C79.9733 50.6996 80.258 47.1982 79.7665 43.7633C79.2984 40.4725 78.1447 37.3167 76.3798 34.5C74.7449 31.8798 72.6541 29.5734 70.2065 27.69H70.2131L45.2198 8.49997L45.1531 8.44997C43.5131 7.18997 40.7565 7.19664 38.9531 8.45664C37.1298 9.72997 36.9231 11.84 38.5431 13.1733L38.5398 13.1766L48.9598 21.6533L17.1931 21.6866H17.1498C14.5231 21.69 11.9998 23.4133 11.4998 25.5933C10.9865 27.81 12.7665 29.65 15.4998 29.66V29.6666L31.5998 29.6333L2.86648 51.69L2.75314 51.7733C0.0431415 53.8466 -0.830192 57.3 0.876475 59.4833C2.60981 61.7066 6.29314 61.71 9.03314 59.4966L24.7131 46.6666C24.7131 46.6666 24.4831 48.4 24.5031 49.4366H24.4998ZM64.7998 55.24C61.5665 58.5333 57.0465 60.4 52.1498 60.4066C47.2498 60.42 42.7265 58.5666 39.4931 55.28C37.9664 53.7472 36.7885 51.903 36.0398 49.8733C35.3537 47.9636 35.0826 45.9296 35.2447 43.9069C35.4068 41.8842 35.9983 39.9193 36.9798 38.1433C37.9562 36.3878 39.261 34.8363 40.8231 33.5733C43.9631 31.0133 47.9598 29.63 52.1431 29.6233C56.3298 29.6166 60.3265 30.99 63.4698 33.54C65.0698 34.8433 66.3698 36.3866 67.3098 38.0966C68.2828 39.8489 68.8757 41.7866 69.0498 43.7833C69.2264 45.8295 68.9546 47.8896 68.2531 49.82C67.5043 51.8527 66.3278 53.7011 64.8031 55.24" fill="#F2F2F2"/>
</g>
<defs>
<clipPath id="clip0_2151_61">
<rect width="80" height="80" fill="white"/>
</clipPath>
</defs>
</svg>
