<?xml version="1.0" standalone="no"?>
<!DOCTYPE svg PUBLIC "-//W3C//DTD SVG 20010904//EN"
 "http://www.w3.org/TR/2001/REC-SVG-20010904/DTD/svg10.dtd">
<svg version="1.0" xmlns="http://www.w3.org/2000/svg"
 width="2024.000000pt" height="2024.000000pt" viewBox="0 0 2024.000000 2024.000000"
 preserveAspectRatio="xMidYMid meet">
<metadata>
Created by potrace 1.14, written by Peter Selinger 2001-2017
</metadata>
<g transform="translate(0.000000,2024.000000) scale(0.100000,-0.100000)"
fill="#000000" stroke="none">
<path d="M10165 13535 c-19 -42 -35 -78 -35 -80 0 -2 -19 -43 -42 -92 -23 -48
-42 -92 -44 -98 -1 -5 -16 -41 -34 -80 -18 -38 -50 -108 -71 -153 -22 -46 -39
-85 -39 -87 0 -2 -13 -32 -29 -67 -16 -35 -39 -85 -51 -113 -13 -27 -47 -104
-77 -170 -62 -136 -71 -157 -69 -166 0 -4 -8 -16 -18 -28 -11 -12 -16 -21 -13
-21 4 0 -7 -26 -23 -59 -17 -32 -30 -61 -30 -64 0 -4 -16 -39 -35 -79 -20 -40
-36 -74 -36 -75 0 -2 -7 -20 -16 -40 -9 -21 -17 -40 -18 -43 0 -3 -3 -9 -7
-15 -3 -5 -55 -120 -116 -255 -60 -135 -126 -280 -146 -323 -20 -43 -39 -89
-42 -103 -3 -13 -10 -24 -15 -24 -5 0 -8 -3 -7 -7 1 -9 -6 -26 -57 -138 -20
-44 -45 -98 -55 -120 -10 -22 -28 -62 -40 -90 -13 -27 -45 -99 -73 -160 -27
-60 -59 -130 -70 -155 -12 -25 -22 -47 -22 -50 -1 -3 -8 -21 -17 -40 -9 -19
-37 -82 -63 -140 -25 -58 -57 -127 -70 -155 -29 -61 -68 -148 -70 -155 0 -3
-12 -27 -25 -55 -13 -27 -25 -52 -25 -55 -3 -10 -24 -57 -69 -152 -25 -54 -42
-98 -38 -98 4 0 2 -4 -4 -8 -5 -4 -21 -32 -33 -62 -13 -30 -43 -97 -67 -148
-24 -52 -44 -95 -44 -97 0 -4 -41 -95 -87 -195 -14 -30 -73 -161 -130 -290
-58 -129 -109 -239 -113 -245 -5 -5 -9 -14 -10 -20 -1 -5 -9 -26 -18 -45 -8
-19 -16 -37 -17 -40 0 -3 -16 -36 -33 -74 -18 -38 -32 -70 -32 -72 0 -1 -17
-40 -39 -86 -38 -82 -140 -308 -208 -463 -19 -44 -39 -87 -44 -95 -5 -8 -12
-22 -15 -30 -15 -38 -38 -89 -61 -135 -14 -27 -24 -51 -24 -53 1 -1 -10 -28
-25 -60 -14 -31 -43 -95 -64 -142 -21 -47 -49 -111 -64 -142 -14 -32 -37 -82
-50 -110 -13 -29 -38 -83 -55 -121 -17 -37 -31 -69 -31 -72 0 -2 -18 -43 -41
-92 -58 -125 -89 -195 -89 -202 0 -3 1116 -6 2481 -6 l2481 0 91 185 c51 102
95 187 100 188 4 2 7 8 7 13 0 6 137 284 305 619 l304 609 -52 0 c-29 0 -78 1
-110 1 -33 0 -63 -2 -68 -6 -5 -3 -9 -1 -9 5 0 5 -11 6 -27 2 -16 -4 -43 -4
-61 0 -17 4 -34 4 -36 0 -4 -6 -55 -6 -81 -1 -5 1 -14 1 -20 0 -25 -5 -134 -2
-143 4 -6 3 -13 3 -16 -2 -5 -9 -70 -7 -86 3 -6 3 -10 3 -10 -2 0 -4 -19 -7
-42 -5 -55 4 -101 3 -106 -3 -3 -2 -13 0 -23 5 -10 6 -20 7 -22 3 -3 -5 -40
-7 -84 -6 -124 4 -184 3 -194 -3 -5 -3 -9 0 -9 6 0 6 -5 8 -10 5 -6 -4 -50 -6
-98 -6 -179 1 -194 1 -203 -5 -5 -3 -9 -1 -9 5 0 5 -11 6 -27 2 -16 -4 -43 -4
-61 0 -17 4 -34 4 -36 0 -4 -6 -55 -6 -81 -1 -5 1 -14 1 -20 0 -25 -5 -134 -2
-143 4 -6 3 -13 3 -16 -2 -5 -9 -70 -7 -86 3 -6 3 -10 3 -10 -2 0 -4 -19 -7
-42 -5 -55 4 -101 3 -106 -3 -3 -2 -13 0 -23 5 -10 6 -20 7 -22 3 -3 -5 -40
-7 -84 -6 -124 4 -184 3 -194 -3 -5 -3 -9 0 -9 6 0 6 -5 8 -10 5 -10 -6 -43
-7 -232 -5 -46 0 -46 1 -38 28 4 16 12 37 18 48 12 20 65 136 67 144 3 9 23
54 58 130 19 41 49 109 67 150 18 41 50 112 71 158 22 46 39 85 39 87 0 2 20
48 45 101 25 53 45 98 45 100 0 2 20 47 45 100 25 53 45 97 45 99 0 4 27 64
101 223 22 46 39 86 39 88 0 6 67 153 80 176 6 10 10 25 10 33 0 8 5 15 10 15
6 0 10 8 10 18 0 10 4 22 8 27 5 6 18 33 30 60 11 28 35 82 53 120 18 39 33
72 34 75 0 3 8 21 17 40 9 19 30 64 46 100 30 66 40 89 107 240 21 47 51 114
68 150 64 140 99 220 102 230 0 3 13 32 29 65 15 33 32 69 36 80 5 11 32 69
60 129 27 59 50 110 50 111 0 2 13 32 29 67 16 35 38 83 49 108 11 25 41 92
67 150 81 181 84 189 106 238 11 26 32 71 46 101 28 61 66 144 68 151 3 9 37
83 71 158 19 41 34 75 34 77 0 2 15 36 34 77 102 222 110 240 108 251 -1 4 2
7 8 7 6 0 9 3 8 8 -1 4 8 27 19 52 11 25 51 113 88 195 37 83 76 169 86 192
11 23 19 47 19 52 0 6 5 11 10 11 6 0 10 5 10 11 0 11 39 102 102 238 29 63
36 86 26 92 -6 4 -16 5 -20 3 -15 -9 -48 -13 -52 -6 -2 4 -35 6 -73 4 -85 -3
-78 -3 -138 1 -27 1 -58 -1 -68 -6 -9 -4 -23 -5 -29 -1 -15 10 -61 10 -75 1
-7 -4 -14 -4 -17 1 -5 9 -109 8 -125 -2 -6 -4 -11 -3 -11 1 0 10 -53 9 -69 -2
-6 -3 -16 -3 -23 1 -15 10 -60 10 -75 1 -7 -4 -14 -4 -17 1 -5 9 -109 8 -125
-2 -6 -4 -16 -4 -23 0 -15 10 -60 10 -75 1 -7 -4 -14 -4 -17 1 -5 9 -109 8
-125 -2 -6 -4 -16 -4 -23 0 -15 10 -60 10 -75 1 -7 -4 -14 -4 -17 1 -5 9 -109
8 -125 -2 -6 -4 -16 -4 -23 0 -16 10 -69 11 -75 1 -2 -4 -9 -4 -16 0 -16 10
-58 10 -63 1 -3 -5 -10 -5 -17 -1 -16 10 -58 10 -63 1 -3 -5 -10 -5 -17 -1
-16 10 -58 10 -63 1 -3 -5 -10 -5 -17 -1 -16 10 -58 10 -63 1 -3 -5 -10 -5
-17 -1 -16 10 -57 10 -57 0 0 -4 -5 -5 -12 -1 -15 10 -60 10 -75 1 -7 -4 -14
-4 -17 1 -5 9 -109 8 -125 -2 -6 -4 -16 -4 -23 0 -16 10 -69 11 -75 1 -3 -4
-11 -3 -18 3 -12 10 -21 -3 -50 -65z"/>
<path d="M13467 13597 c4 -7 52 -79 106 -160 53 -82 97 -150 97 -153 0 -3 5
-10 11 -17 14 -16 293 -441 294 -447 0 -3 8 -16 18 -30 10 -14 64 -95 120
-180 55 -85 127 -195 159 -243 32 -49 58 -91 58 -93 0 -3 5 -10 11 -17 22 -25
249 -378 249 -387 0 -6 5 -10 10 -10 6 0 10 -6 10 -14 0 -8 4 -16 8 -18 5 -1
33 -41 63 -88 29 -47 57 -86 61 -88 5 -2 8 -8 8 -13 0 -10 147 -235 168 -257
6 -7 12 -19 12 -27 0 -7 3 -15 8 -17 4 -1 66 -93 137 -203 71 -110 133 -201
137 -203 5 -2 8 -8 8 -14 0 -5 17 -35 38 -66 40 -58 66 -97 92 -138 8 -13 62
-96 120 -184 58 -88 110 -168 115 -177 6 -9 18 -26 28 -37 9 -11 17 -23 17
-27 0 -5 24 -44 54 -87 l53 -79 -48 -72 c-27 -40 -49 -76 -49 -81 0 -5 -3 -10
-7 -12 -5 -1 -33 -41 -63 -88 -30 -47 -58 -86 -62 -88 -5 -2 -8 -10 -8 -18 0
-8 -4 -14 -10 -14 -5 0 -10 -5 -10 -10 0 -6 -36 -64 -80 -130 -44 -66 -80
-124 -80 -130 0 -5 -4 -10 -8 -10 -4 0 -21 -22 -37 -50 -16 -27 -33 -50 -37
-50 -4 0 -8 -4 -8 -10 0 -7 -178 -288 -207 -325 -4 -6 -24 -35 -44 -65 -20
-30 -96 -147 -171 -260 -74 -113 -143 -220 -153 -237 -11 -18 -23 -33 -27 -33
-4 0 -8 -4 -8 -9 0 -6 -35 -63 -77 -128 -43 -65 -81 -126 -85 -135 -4 -10 -12
-18 -18 -18 -5 0 -10 -4 -10 -10 0 -12 -131 -214 -142 -218 -5 -2 -8 -8 -8
-12 0 -9 -99 -163 -120 -187 -5 -7 -10 -16 -10 -21 0 -5 -7 -16 -16 -23 -9 -7
-20 -22 -25 -34 -8 -18 -307 -477 -326 -500 -5 -5 -30 -44 -56 -85 -55 -88
-50 -81 -127 -194 -33 -48 -60 -91 -60 -95 0 -5 -11 -21 -25 -37 -14 -16 -25
-33 -25 -37 0 -5 -7 -15 -15 -24 -9 -8 -14 -20 -12 -26 4 -13 177 -16 177 -4
0 5 6 5 12 1 17 -11 378 -11 378 -1 0 5 5 5 12 1 15 -10 100 -10 116 0 6 4 12
4 12 -1 0 -10 292 -9 308 1 7 4 12 4 12 -1 0 -10 651 -9 668 1 7 4 12 4 12 -1
0 -4 104 -8 230 -8 139 0 230 4 230 9 0 6 5 5 11 -1 5 -5 20 -8 32 -6 21 4 37
25 119 153 63 98 158 245 168 260 6 8 55 85 110 170 54 85 103 160 107 165 17
21 40 60 41 69 0 5 4 12 9 15 5 3 39 53 76 111 37 58 75 115 84 128 9 13 22
32 27 42 19 33 110 175 115 180 3 3 11 13 16 22 12 21 95 150 213 331 80 123
85 128 96 105 12 -21 49 -80 247 -383 32 -49 88 -135 123 -190 35 -55 69 -105
75 -112 6 -7 11 -15 11 -18 0 -4 27 -47 60 -96 33 -49 60 -93 60 -98 0 -5 4
-11 8 -13 4 -1 59 -84 122 -183 63 -99 118 -181 122 -183 5 -2 8 -8 8 -13 0
-6 9 -22 19 -37 43 -60 251 -382 265 -411 l17 -31 1124 0 1125 0 -27 43 c-15
23 -30 44 -33 47 -7 7 -29 42 -37 60 -4 8 -11 20 -16 25 -4 6 -46 69 -93 140
-47 72 -91 138 -99 148 -8 9 -15 19 -15 22 0 2 -65 103 -145 225 -80 121 -145
223 -144 226 0 4 -3 10 -8 13 -14 10 -113 158 -113 169 0 6 -3 12 -7 14 -7 3
-82 110 -93 133 -3 6 -61 96 -131 200 -69 105 -163 248 -210 319 -206 318
-308 472 -318 483 -6 7 -11 14 -11 17 0 5 -144 225 -157 241 -5 6 -18 26 -29
45 -10 19 -27 43 -36 54 -10 11 -18 26 -18 33 0 7 -3 13 -8 13 -4 0 -16 16
-26 35 -11 19 -23 35 -28 35 -4 0 -8 5 -8 12 0 7 -22 45 -50 85 -27 40 -50 77
-50 83 0 5 -3 10 -7 10 -5 0 -26 30 -48 66 -22 36 -46 72 -52 79 -7 8 -13 16
-13 20 0 3 -5 11 -10 18 -26 30 -118 177 -112 177 4 0 2 4 -4 8 -6 4 -36 45
-67 92 -53 78 -69 120 -49 120 5 0 15 12 23 28 8 15 17 32 22 37 29 39 77 116
77 125 0 5 4 10 9 10 5 0 16 16 25 35 9 19 21 35 26 35 6 0 10 5 10 12 0 13
51 91 63 96 4 2 7 8 7 13 0 5 26 48 58 97 32 48 76 114 98 147 21 33 42 62 46
63 5 2 8 12 8 22 0 10 4 20 9 22 4 2 49 66 99 143 50 77 94 145 99 150 4 6 14
22 22 38 8 15 18 27 23 27 4 0 8 5 8 10 0 6 8 23 19 38 10 15 36 54 57 87 21
33 41 62 44 65 4 3 24 34 45 70 21 36 42 67 46 70 4 3 14 17 21 30 13 24 54
88 237 365 47 72 88 134 90 139 2 6 33 52 67 104 35 51 64 97 64 103 0 5 4 9
9 9 5 0 11 8 14 18 4 9 15 28 26 42 10 14 57 84 102 155 46 72 86 132 89 135
6 6 24 35 46 74 9 16 25 38 35 49 10 12 19 27 19 34 0 7 5 13 10 13 6 0 10 5
10 10 0 10 74 126 100 157 5 7 10 15 10 18 0 3 5 11 10 18 12 15 140 208 140
212 0 1 47 74 105 161 58 88 105 164 105 169 0 7 -373 9 -1102 8 -1286 -2
-1138 -1 -1138 -13 0 -5 -22 -42 -49 -82 -66 -99 -145 -221 -151 -233 -3 -6
-40 -63 -82 -127 -43 -65 -78 -122 -78 -128 0 -5 -4 -10 -10 -10 -5 0 -10 -6
-10 -14 0 -8 -3 -16 -7 -18 -7 -3 -61 -80 -73 -103 -5 -9 -46 -73 -142 -218
-21 -32 -38 -62 -38 -67 0 -5 -3 -10 -8 -12 -4 -1 -56 -79 -116 -173 -61 -93
-144 -222 -185 -285 -42 -63 -80 -122 -86 -131 -5 -9 -28 -46 -50 -83 -38 -62
-55 -79 -55 -55 0 8 -139 229 -167 265 -4 5 -13 19 -20 30 -7 10 -30 48 -53
84 -23 36 -46 74 -53 85 -7 11 -15 22 -18 25 -4 3 -22 30 -40 60 -28 46 -59
94 -129 200 -67 101 -146 224 -167 260 -14 25 -29 47 -33 50 -3 3 -17 23 -30
45 -13 22 -30 46 -36 53 -7 6 -16 21 -19 32 -3 11 -11 20 -16 20 -5 0 -9 4 -9
10 0 7 -64 110 -131 210 -5 8 -57 88 -116 178 l-105 162 -1120 0 c-901 0
-1117 -2 -1111 -13z"/>
<path d="M3128 13566 c-10 -11 -18 -28 -18 -38 0 -10 -4 -18 -9 -18 -5 0 -12
-12 -16 -27 -3 -16 -23 -64 -44 -108 -21 -44 -62 -134 -91 -200 -29 -66 -72
-162 -96 -214 -24 -51 -44 -95 -44 -97 0 -2 -16 -39 -36 -81 -19 -43 -41 -91
-49 -108 -18 -42 -142 -319 -172 -385 -14 -30 -43 -95 -65 -145 -22 -49 -53
-117 -69 -151 -16 -33 -29 -65 -29 -71 0 -6 -7 -16 -15 -23 -8 -7 -12 -16 -9
-21 3 -5 0 -9 -6 -9 -6 0 -9 -4 -5 -9 3 -5 1 -12 -5 -16 -5 -3 -10 -15 -10
-26 0 -10 -4 -19 -10 -19 -5 0 -10 -5 -10 -11 0 -10 -10 -34 -76 -177 -19 -40
-37 -84 -40 -98 -3 -13 -9 -24 -13 -24 -4 0 -13 -17 -20 -37 -8 -20 -33 -79
-57 -130 -24 -52 -44 -96 -44 -98 0 -6 -58 -132 -81 -176 -10 -20 -16 -39 -12
-43 3 -3 1 -6 -5 -6 -7 0 -12 -4 -12 -10 0 -5 -12 -35 -26 -67 -15 -32 -32
-71 -39 -88 -8 -16 -29 -64 -48 -105 -19 -41 -44 -97 -57 -125 -12 -27 -33
-72 -47 -100 -14 -27 -24 -51 -24 -53 1 -1 -13 -33 -30 -70 -18 -37 -33 -69
-34 -72 -5 -16 -21 -52 -46 -108 -16 -34 -29 -67 -29 -72 0 -6 -5 -10 -12 -10
-6 0 -9 -3 -5 -6 3 -4 -1 -21 -10 -38 -10 -17 -18 -33 -18 -36 -2 -5 -12 -29
-68 -150 -57 -125 -67 -149 -67 -159 0 -6 -5 -11 -12 -11 -6 0 -9 -3 -5 -6 3
-4 -1 -21 -10 -38 -10 -17 -18 -33 -18 -36 -2 -5 -27 -62 -70 -155 -16 -33
-29 -62 -30 -65 -2 -6 -25 -58 -58 -130 -25 -56 -51 -112 -95 -210 -13 -30
-34 -75 -45 -100 -11 -25 -21 -47 -22 -50 -1 -3 -13 -30 -27 -60 -14 -30 -55
-120 -91 -200 -36 -80 -79 -176 -97 -215 -18 -38 -49 -108 -70 -155 -21 -47
-53 -116 -71 -155 -18 -38 -33 -72 -34 -75 -1 -3 -5 -17 -9 -32 -5 -16 -12
-28 -17 -28 -5 0 -9 -5 -9 -11 0 -5 -9 -29 -19 -52 -10 -23 -39 -87 -64 -142
-25 -55 -57 -127 -73 -160 -15 -33 -29 -62 -29 -65 -1 -6 -21 -49 -61 -135
-15 -33 -28 -62 -29 -65 -2 -6 -8 -20 -130 -290 -53 -118 -107 -235 -119 -260
-13 -25 -23 -47 -24 -50 0 -3 -9 -23 -18 -45 -10 -22 -18 -42 -19 -45 0 -3 -4
-11 -8 -17 -6 -9 -1 -13 15 -14 158 -3 2221 1 2225 4 3 3 10 4 17 1 15 -6 9
-16 137 271 56 127 115 258 130 293 16 34 29 64 29 66 0 2 15 37 34 78 65 140
96 209 96 213 0 5 78 176 90 197 6 10 10 24 10 32 0 7 7 19 15 26 9 7 13 15
11 18 -3 2 2 19 11 36 10 17 18 33 18 36 3 11 25 61 64 144 23 49 41 90 41 92
0 2 20 47 45 100 25 53 45 99 45 102 0 4 9 25 20 47 11 22 33 69 49 105 16 36
41 91 55 124 15 32 28 63 29 70 1 6 4 13 8 16 3 3 16 30 28 60 13 30 37 84 54
120 17 36 31 67 32 70 1 3 8 21 17 41 l16 36 1476 -1 1477 -1 98 200 c55 110
149 300 209 423 61 122 107 222 104 222 -4 0 -2 4 4 8 8 5 254 492 259 512 0
3 20 43 44 89 72 140 75 129 -32 127 -51 -1 -98 2 -104 7 -7 5 -13 6 -13 1 0
-11 -121 -11 -138 0 -7 4 -12 4 -12 -1 0 -4 -33 -7 -72 -6 -89 4 -77 4 -165 0
-40 -1 -73 2 -73 7 0 5 -5 5 -12 -1 -16 -10 -128 -10 -145 0 -7 5 -13 5 -13 0
0 -4 -33 -7 -72 -6 -89 4 -77 4 -165 0 -40 -1 -73 2 -73 6 0 5 -6 5 -12 1 -14
-9 -148 -12 -148 -4 0 3 -9 6 -20 6 -11 0 -20 -3 -20 -6 0 -3 -33 -4 -72 -2
-84 3 -77 3 -143 -1 -27 -1 -62 1 -77 5 -16 3 -28 4 -28 0 0 -4 -33 -6 -72 -4
-40 1 -77 2 -83 2 -5 0 -79 -1 -163 -2 -83 -2 -152 1 -152 6 0 5 -6 4 -12 -1
-7 -5 -71 -7 -143 -6 -71 2 -134 3 -140 3 -5 0 -43 -1 -82 -3 -40 -1 -73 2
-73 7 0 5 -6 4 -12 -1 -7 -5 -44 -7 -83 -6 -88 4 -77 4 -162 0 -40 -1 -73 1
-73 6 0 4 -8 4 -17 0 -22 -10 -84 -10 -100 0 -13 8 -8 33 13 57 7 8 13 17 13
20 0 9 19 54 61 145 55 118 64 139 62 148 -1 4 2 7 8 7 5 0 10 5 10 11 0 6 18
50 41 98 22 47 42 91 43 96 3 10 35 80 96 210 16 33 42 90 59 128 17 37 45 97
62 135 32 69 51 113 54 122 0 3 7 16 15 30 8 14 15 31 16 38 7 39 -54 38 2096
37 l2072 0 23 45 c13 25 23 51 23 58 0 6 5 12 10 12 6 0 10 6 10 13 0 6 18 48
40 92 22 44 40 86 40 93 0 6 5 12 10 12 6 0 10 4 10 9 0 6 25 63 56 128 31 65
76 159 99 208 23 50 69 146 102 215 89 183 170 353 215 450 22 47 55 115 74
153 19 37 34 74 34 82 0 8 4 15 8 15 4 0 15 16 24 35 l16 35 -32 1 c-17 0
-1462 1 -3210 2 -3135 2 -3180 2 -3198 -17z"/>
</g>
</svg>
