<svg width="128" height="128" viewBox="0 0 128 128" fill="none" xmlns="http://www.w3.org/2000/svg">
<g clip-path="url(#clip0_2054_159)">
<path fill-rule="evenodd" clip-rule="evenodd" d="M56 128H18.6667C11.2 128 5.33333 121.92 5.33333 114.667V52.5867C1.80267 50.064 0 46.1813 0 42.2347C0 40.2293 0.474667 38.2347 1.54133 36.2133C7.22133 26.0907 13.024 16.0373 18.9547 6.05867C21.4187 2.128 25.4133 0 29.8613 0C33.248 0 35.0453 1.088 37.568 2.55467C41.0987 4.61333 85.568 31.0987 104.299 42.24C104.763 42.5173 122.251 52.8427 122.693 53.1467C126.229 55.76 128 59.5307 128 63.4613C128 65.4613 127.509 67.4347 126.427 69.488C120.752 79.616 114.944 89.6693 109.013 99.648C105.936 104.555 100.4 106.528 95.7013 105.451C93.6107 106.699 64.6293 125.451 62.3573 126.613C60.1547 127.744 58.2933 128 56 128ZM16 70.5973V114.667C16 116.128 17.1787 117.333 18.6667 117.333H43.136C33.9627 101.835 24.912 86.256 16 70.5973ZM24.5653 63.9947C24.848 64.4853 54.864 116.245 55.104 116.576C55.68 117.317 56.6987 117.541 57.5307 117.099C58.4053 116.608 84.6293 99.76 84.6293 99.76C81.2213 97.7493 41.1947 73.888 24.5653 63.9947ZM28.08 11.5733C23.2107 19.3387 11.0187 41.04 10.8267 41.4933C10.4533 42.4053 10.784 43.4453 11.6213 43.968C12.6933 44.608 97.0773 94.8853 97.8987 95.0133C98.704 95.1307 99.4827 94.7733 99.9093 94.0853C104.933 85.6373 117.008 64.4853 117.147 64.2133C117.515 63.296 117.184 62.256 116.347 61.7333C115.275 61.0933 31.104 11.072 30.5333 10.8213C29.5733 10.4267 28.5867 10.8107 28.08 11.5733ZM36.384 25.9467C42.272 25.9467 47.0507 30.7307 47.0507 36.6133C47.0507 42.5013 42.272 47.28 36.384 47.28C30.496 47.28 25.7173 42.5013 25.7173 36.6133C25.7173 30.7307 30.496 25.9467 36.384 25.9467Z" fill="#F2F2F2"/>
</g>
<defs>
<clipPath id="clip0_2054_159">
<rect width="128" height="128" fill="white"/>
</clipPath>
</defs>
</svg>
