<svg width="153" height="128" viewBox="0 0 153 128" fill="none" xmlns="http://www.w3.org/2000/svg">
<path fill-rule="evenodd" clip-rule="evenodd" d="M117.333 128H26.6667C17.8294 128 10.6667 120.837 10.6667 112V16C10.6667 7.16267 17.8294 0 26.6667 0H117.333V128ZM106.667 106.667H29.3067C21.9734 106.667 21.9734 117.333 29.3067 117.333H106.667V106.667ZM90.6667 26.6667H37.3334V42.6667H90.6667V26.6667Z" fill="#F2F2F2"/>
<g clip-path="url(#clip0_2258_3)">
<path d="M110.777 65.0033L84.6532 79.21C84.6532 79.21 80.1899 96.7233 72.9966 107.89L81.0599 116C92.1066 108.89 109.74 104.297 109.74 104.297L123.95 78.1733L110.777 65.0033ZM105.23 98.64C101.093 99.8567 93.0966 102.41 85.5132 105.997L91.5332 99.9767C92.6932 98.8133 94.1999 98.08 95.8266 97.8767C97.9832 97.6067 99.5366 95.7767 99.5366 93.6667C99.5366 91.3233 97.6399 89.4167 95.2866 89.4167C93.1632 89.4167 91.3432 90.9867 91.0766 93.1267C90.8766 94.75 90.1399 96.26 88.9799 97.42L83.0499 103.35C86.6232 95.77 89.1332 87.8433 90.3299 83.7133L109.59 73.2367L115.717 79.36L105.23 98.64ZM113.047 57.8C113.047 57.8 120.207 44.57 124.63 36L153 64.37C144.393 68.7733 131.147 75.9 131.147 75.9L113.047 57.8Z" fill="#D4D4D4"/>
</g>
<defs>
<clipPath id="clip0_2258_3">
<rect width="80" height="80" fill="white" transform="translate(73 36)"/>
</clipPath>
</defs>
</svg>
