<svg width="48" height="48" viewBox="0 0 48 48" fill="none" xmlns="http://www.w3.org/2000/svg">
<path d="M12.3521 2.644L18.0401 0L26.122 15.78L20.6741 18.462C19.5981 20.98 24.9921 31.04 27.268 31.206C27.448 31.09 32.6101 28.55 32.6101 28.55L40.8301 44.414C40.8301 44.414 35.3021 47.122 35.1221 47.206C19.3981 54.388 -3.08395 10.69 12.3521 2.644ZM16.21 5.192L14.1641 6.2C3.57605 11.724 22.518 48.57 33.46 43.572L35.4021 42.624L30.8601 33.858L28.8081 34.858C22.482 37.952 12.2841 18.42 18.6981 14.982L20.7121 13.988L16.21 5.192Z" fill="#F2F2F2"/>
</svg>
