<svg width="80" height="80" viewBox="0 0 80 80" fill="none" xmlns="http://www.w3.org/2000/svg">
<g clip-path="url(#clip0_2045_31)">
<path d="M58.61 0.209951C57.3389 0.192377 56.1089 0.659606 55.17 1.51662C55.1689 1.51662 55.1678 1.51662 55.1667 1.51662C55.1092 1.56448 55.0536 1.61451 55 1.66662L28.4267 31.0533L12.9167 18.3333L11.56 17.1666C11.0921 16.7777 10.5266 16.5242 9.92495 16.4337C9.32326 16.3432 8.70828 16.4192 8.14667 16.6533C8.1333 16.6588 8.11996 16.6643 8.10667 16.67L2.05 19.17C1.96278 19.2063 1.87715 19.2463 1.79333 19.29C1.74027 19.3196 1.68803 19.3507 1.63667 19.3833C1.59391 19.4068 1.55168 19.4312 1.51 19.4566C1.45557 19.4928 1.40221 19.5306 1.35 19.57C1.31616 19.596 1.28282 19.6226 1.25 19.65C1.19998 19.6886 1.15108 19.7286 1.10333 19.77C1.06244 19.8056 1.02243 19.8423 0.983333 19.88C0.946861 19.918 0.911295 19.9569 0.876667 19.9966C0.838943 20.0379 0.802265 20.0801 0.766667 20.1233C0.726411 20.1711 0.687507 20.22 0.65 20.2699C0.62255 20.3072 0.595878 20.345 0.57 20.3833C0.532803 20.4378 0.497232 20.4934 0.463333 20.5499C0.440329 20.5884 0.418103 20.6273 0.396667 20.6666C0.368464 20.7214 0.341787 20.777 0.316667 20.8333C0.293217 20.8827 0.270988 20.9327 0.25 20.9833C0.23108 21.0317 0.213297 21.0807 0.196667 21.13C0.177595 21.1817 0.159812 21.234 0.143333 21.2866C0.124928 21.3472 0.108254 21.4084 0.0933333 21.4699C0.0813071 21.5142 0.0701936 21.5586 0.06 21.6033C0.0494748 21.663 0.0405826 21.7231 0.0333333 21.7833C0.0252686 21.8387 0.0185999 21.8942 0.0133333 21.9499C0.00505749 22.0419 0.000609206 22.1343 0 22.2266L0 57.7799C0.00387716 58.4344 0.200342 59.0733 0.564893 59.6169C0.929445 60.1604 1.44595 60.5846 2.05 60.8366L8.10667 63.3833C8.67601 63.6202 9.29993 63.6946 9.90901 63.598C10.5181 63.5015 11.0885 63.2379 11.5567 62.8366L12.9167 61.6699L28.4267 48.9533L55.0033 78.3366C55.081 78.4114 55.161 78.4837 55.2433 78.5533C55.3053 78.6104 55.3686 78.666 55.4333 78.7199C55.4967 78.7681 55.5611 78.8148 55.6267 78.86C55.6954 78.9106 55.7654 78.9595 55.8367 79.0066C55.9078 79.0506 55.9801 79.0929 56.0533 79.1333C56.1246 79.1751 56.1968 79.2151 56.27 79.2533C56.3447 79.2896 56.4203 79.3241 56.4967 79.3566C56.5736 79.3919 56.6514 79.4253 56.73 79.4566C56.8104 79.4865 56.8915 79.5143 56.9733 79.5399C57.0461 79.5639 57.1195 79.5861 57.1933 79.6066C57.2816 79.6313 57.3705 79.6535 57.46 79.6733C57.5352 79.6906 57.6108 79.7061 57.6867 79.7199C57.7697 79.7332 57.8531 79.7443 57.9367 79.7533C58.0198 79.7643 58.1031 79.7732 58.1867 79.7799C58.2677 79.7853 58.3488 79.7886 58.43 79.7899C58.5155 79.7921 58.6011 79.7921 58.6867 79.7899C58.7735 79.7867 58.8602 79.7811 58.9467 79.7733C59.0213 79.7672 59.0957 79.7594 59.17 79.7499C59.2671 79.7361 59.3638 79.7195 59.46 79.7C59.5269 79.688 59.5936 79.6746 59.66 79.66C59.7496 79.638 59.8385 79.6135 59.9267 79.5866C60.0027 79.5662 60.0783 79.544 60.1533 79.52C60.2319 79.4908 60.3097 79.4597 60.3867 79.4266C60.488 79.3888 60.588 79.3476 60.6867 79.3033L77.1667 71.3799C77.7712 71.0883 78.3108 70.6779 78.7533 70.1733C78.8592 70.0537 78.9594 69.9291 79.0533 69.7999C79.0578 69.7922 79.0622 69.7844 79.0667 69.7766C79.1624 69.6422 79.2514 69.5032 79.3333 69.3599C79.4082 69.2298 79.4772 69.0963 79.54 68.9599C79.5501 68.9411 79.5601 68.9222 79.57 68.9033C79.619 68.785 79.6635 68.6649 79.7033 68.5433C79.7206 68.5024 79.7372 68.4613 79.7533 68.4199C79.7911 68.3023 79.8244 68.1834 79.8533 68.0633C79.8639 68.0223 79.8739 67.9812 79.8833 67.9399C79.906 67.8295 79.9249 67.7183 79.94 67.6066C79.9498 67.5512 79.9587 67.4957 79.9667 67.4399C79.9763 67.3402 79.983 67.2401 79.9867 67.1399C79.9935 67.0512 79.9979 66.9623 80 66.8733V13.14C80 13.1366 80 13.1333 80 13.13C80.0004 13.0944 80.0004 13.0588 80 13.0233C79.9973 12.8562 79.9861 12.6893 79.9667 12.5233C79.8646 11.6905 79.5547 10.8968 79.0654 10.2152C78.5761 9.53368 77.9231 8.98622 77.1667 8.62328L60.6867 0.699951C60.0385 0.390718 59.3314 0.224731 58.6133 0.213284L58.61 0.209951ZM60 23.0666V56.9433L39.34 40.0099L60 23.0666ZM10 28.58L20.33 40.0033L9.99667 51.4233L10 28.58Z" fill="#F2F2F2"/>
</g>
<defs>
<clipPath id="clip0_2045_31">
<rect width="80" height="80" fill="white"/>
</clipPath>
</defs>
</svg>
