<svg width="80" height="80" viewBox="0 0 80 80" fill="none" xmlns="http://www.w3.org/2000/svg">
<path d="M32.8333 28.0667C31.6 27.5667 30.2667 27.3667 28.9 27.4C28.0333 27.4 27.2667 27.4 26.6333 27.4333C25.9667 27.4 25.5 27.4333 25.2667 27.4667V38.6667C25.7333 38.7 26.1667 38.7333 26.5667 38.7333H28.3333C29.6333 38.7333 30.9333 38.5333 32.1667 38.1333C33.2333 37.8333 34.1667 37.2 34.9 36.3667C35.6 35.5333 35.9333 34.4 35.9333 32.9333C35.9667 31.9 35.7 30.8667 35.1667 29.9667C34.6 29.1 33.8 28.4333 32.8333 28.0667ZM65.8333 1H14.1667C6.33333 1 0 7.33333 0 15.1667V64.83C0 72.6633 6.33333 78.9967 14.1667 78.9967H65.8333C73.6667 78.9967 80 72.6633 80 64.83V15.1667C80 7.33333 73.6667 1 65.8333 1ZM41.1967 39.8333C39.8667 41.7 38 43.1 35.8333 43.9C33.5667 44.7333 31.0667 45.0333 28.3333 45.0333C27.5333 45.0333 27 45.0333 26.6667 45C26.3333 44.9667 25.8667 44.9667 25.2333 44.9667V55.6633C25.2667 55.8967 25.1 56.1 24.8667 56.1333H18.4C18.1333 56.1333 18 55.9967 18 55.6967V21.4C18 21.1667 18.1 21.0333 18.3333 21.0333C18.9 21.0333 19.4333 21.0333 20.2 21C21 20.9667 21.8333 20.9667 22.7333 20.9333C23.6333 20.9 24.6 20.9 25.6333 20.8667C26.6667 20.8333 27.6667 20.8333 28.6667 20.8333C31.4 20.8333 33.6667 21.1667 35.5333 21.8667C37.2 22.4333 38.7333 23.3667 40 24.6C41.0667 25.6667 41.9 26.9667 42.4333 28.4C42.93 29.8 43.1967 31.2333 43.1967 32.7333C43.2 35.6 42.5333 37.9667 41.1967 39.8333ZM64.8333 52.8C63.9 54.1333 62.5967 55.1633 61.1 55.77C59.4667 56.4667 57.4667 56.83 55.0633 56.83C53.5333 56.83 52.03 56.7 50.5333 56.4C49.3667 56.1967 48.2 55.8333 47.1333 55.3333C46.9 55.2033 46.73 54.97 46.7633 54.7033V48.9033C46.7633 48.8067 46.8 48.67 46.9 48.6033C46.9967 48.5367 47.1 48.57 47.2 48.6367C48.5 49.4033 49.8667 49.94 51.3333 50.27C52.5967 50.6033 53.93 50.77 55.2667 50.77C56.5333 50.77 57.4333 50.6 58.0333 50.3C58.5667 50.0667 58.9333 49.5 58.9333 48.9C58.9333 48.43 58.6667 48 58.1333 47.5667C57.6 47.1367 56.5033 46.6367 54.87 45.9967C53.17 45.3967 51.6067 44.5967 50.1367 43.6C49.1033 42.8633 48.24 41.9 47.6 40.7667C47.07 39.7 46.8033 38.5333 46.8367 37.3633C46.8367 35.93 47.2367 34.5633 47.9733 33.33C48.8067 31.9967 50.0367 30.93 51.47 30.2633C53.0333 29.4667 55 29.1 57.3667 29.1C58.7333 29.1 60.1333 29.2 61.5 29.4C62.5 29.5333 63.4667 29.8 64.3667 30.1667C64.4967 30.2 64.6333 30.3333 64.7 30.4667C64.7333 30.6 64.7667 30.7333 64.7667 30.8667V36.3C64.7667 36.4333 64.7 36.5667 64.6 36.6333C64.3 36.7 64.1333 36.7 64 36.6333C63 36.1 61.9333 35.7333 60.8 35.5C59.5667 35.2333 58.3333 35.0667 57.0667 35.0667C56.4 35.0333 55.7 35.1333 55.0633 35.3C54.6333 35.4 54.2633 35.6333 54.03 35.9667C53.8633 36.2333 53.7633 36.5667 53.7633 36.8667C53.7633 37.1667 53.8967 37.4667 54.1 37.7333C54.4 38.1 54.7967 38.4 55.2333 38.6333C55.9967 39.0333 56.8 39.4 57.5967 39.7333C59.4 40.3333 61.1333 41.1667 62.7333 42.1667C63.8333 42.8633 64.7333 43.8 65.3633 44.9333C65.8967 45.9933 66.1633 47.1667 66.13 48.3633C66.1667 49.9333 65.7 51.4967 64.8333 52.8Z" fill="#F2F2F2"/>
</svg>
