<svg xmlns="http://www.w3.org/2000/svg"><symbol id="icon-arrow_down" viewBox="0 0 128 128"><g clip-path="url(#a)"><path d="M106.667 53.461v32.08L64 128 21.333 85.541v-32.08L64 95.92l42.667-42.459ZM21.333 0v32.08L64 74.539l42.667-42.459V0L64 42.459 21.333 0Z"/></g><defs><clipPath id="a"><path transform="rotate(90 64 64)" d="M0 0h128v128H0z"/></clipPath></defs></symbol><symbol id="icon-logo_behance_border" viewBox="0 0 24 24"><path d="M8.228 15.01H6V13h2.261c1.878 0 2.003 2.01-.033 2.01zm6.758-2.677h3.018c-.117-1.715-2.73-1.977-3.018 0zM8.182 9H6v2h2.389c1.673 0 1.937-2-.207-2zM24 5v14a5 5 0 0 1-5 5H5a5 5 0 0 1-5-5V5a5 5 0 0 1 5-5h14a5 5 0 0 1 5 5zM14 8h5V7h-5v1zm-3.552 3.618c1.907-.974 1.837-4.55-1.813-4.604H4v9.978h4.311c4.522 0 4.445-4.534 2.137-5.374zm9.487.602c-.274-1.763-1.528-2.95-3.583-2.95-2.094 0-3.352 1.34-3.352 3.947C13 15.848 14.367 17 16.416 17s3.106-1.135 3.4-2h-2.111c-.736.855-2.893.521-2.767-1.353h5.06c.01-.634-.012-1.089-.063-1.427z"/></symbol><symbol id="icon-logo_blender" viewBox="0 0 80 80"><g clip-path="url(#a)"><path d="M41.7 44.047c.153-2.667 1.46-5.02 3.433-6.687a11.414 11.414 0 0 1 7.373-2.633c2.834 0 5.437 1 7.37 2.633 1.974 1.667 3.277 4.02 3.427 6.683.15 2.744-.95 5.287-2.883 7.177a11.297 11.297 0 0 1-7.913 3.127 11.31 11.31 0 0 1-7.92-3.127c-1.934-1.89-3.034-4.433-2.884-7.173M24.5 49.437c.02 1.046.353 3.073.853 4.66a24.573 24.573 0 0 0 5.31 9.19 27.422 27.422 0 0 0 9.29 6.67c3.843 1.694 8 2.557 12.2 2.533a29.88 29.88 0 0 0 12.19-2.573 27.616 27.616 0 0 0 9.283-6.7 24.76 24.76 0 0 0 5.307-9.207 23.213 23.213 0 0 0 .833-10.247A23.743 23.743 0 0 0 76.38 34.5a25.878 25.878 0 0 0-6.173-6.81h.006L45.22 8.5l-.067-.05c-1.64-1.26-4.396-1.253-6.2.007-1.823 1.273-2.03 3.383-.41 4.716l-.003.004 10.42 8.476-31.767.034h-.043c-2.627.003-5.15 1.726-5.65 3.906-.514 2.217 1.267 4.057 4 4.067v.007l16.1-.034L2.866 51.69l-.113.083C.043 53.847-.83 57.3.876 59.483c1.734 2.224 5.417 2.227 8.157.014l15.68-12.83s-.23 1.733-.21 2.77H24.5Zm40.3 5.803c-3.233 3.293-7.753 5.16-12.65 5.167-4.9.013-9.423-1.84-12.657-5.127a15.035 15.035 0 0 1-3.453-5.407 14.274 14.274 0 0 1 .94-11.73 15.675 15.675 0 0 1 3.843-4.57c3.14-2.56 7.137-3.943 11.32-3.95 4.187-.006 8.184 1.367 11.327 3.917 1.6 1.303 2.9 2.847 3.84 4.557a14.267 14.267 0 0 1 1.74 5.686 14.12 14.12 0 0 1-.797 6.037 15.133 15.133 0 0 1-3.45 5.42"/></g><defs><clipPath id="a"><path d="M0 0h80v80H0z"/></clipPath></defs></symbol><symbol id="icon-logo_figma" viewBox="0 0 80 80"><path d="M52.84 29.937H37.547V0H52.84c8.253 0 14.967 6.713 14.967 14.967 0 8.253-6.714 14.97-14.967 14.97Zm-10.39-4.904h10.39c5.55 0 10.063-4.516 10.063-10.063 0-5.547-4.516-10.063-10.063-10.063H42.45v20.126Zm0 4.904H27.16c-8.253 0-14.967-6.714-14.967-14.967S18.907 0 27.16 0h15.293v29.937h-.003ZM27.16 4.903c-5.55 0-10.063 4.517-10.063 10.064 0 5.546 4.513 10.066 10.063 10.066h10.39V4.903H27.16Zm15.29 50.064H27.16c-8.253 0-14.967-6.714-14.967-14.967s6.714-14.967 14.967-14.967h15.293v29.934h-.003Zm-15.29-25.03c-5.55 0-10.063 4.516-10.063 10.063 0 5.547 4.516 10.063 10.063 10.063h10.39V29.937H27.16ZM27.24 80c-8.297 0-15.05-6.713-15.05-14.967 0-8.253 6.713-14.966 14.967-14.966H42.45V64.87c0 8.343-6.823 15.13-15.21 15.13Zm-.08-25.033A10.077 10.077 0 0 0 17.097 65.03c0 5.55 4.55 10.063 10.146 10.063 5.684 0 10.31-4.586 10.31-10.226v-9.9H27.16Zm25.68 0h-.327c-8.253 0-14.966-6.714-14.966-14.967s6.713-14.967 14.966-14.967h.327c8.253 0 14.967 6.714 14.967 14.967S61.093 54.967 52.84 54.967Zm-.323-25.03c-5.55 0-10.064 4.516-10.064 10.063 0 5.547 4.517 10.063 10.064 10.063h.326c5.55 0 10.064-4.516 10.064-10.063 0-5.547-4.517-10.063-10.064-10.063h-.326Z"/></symbol><symbol id="icon-logo_instagram_border" viewBox="0 0 24 24"><path d="M15.233 5.488c-.843-.038-1.097-.046-3.233-.046s-2.389.008-3.232.046c-2.17.099-3.181 1.127-3.279 3.279-.039.844-.048 1.097-.048 3.233s.009 2.389.047 3.233c.099 2.148 1.106 3.18 3.279 3.279.843.038 1.097.047 3.233.047 2.137 0 2.39-.008 3.233-.046 2.17-.099 3.18-1.129 3.279-3.279.038-.844.046-1.097.046-3.233s-.008-2.389-.046-3.232c-.099-2.153-1.111-3.182-3.279-3.281zM12 16.108a4.108 4.108 0 1 1 0-8.215 4.108 4.108 0 0 1 0 8.215zm4.271-7.418a.96.96 0 1 1 0-1.92.96.96 0 0 1 0 1.92zM14.667 12a2.667 2.667 0 1 1-5.334 0 2.667 2.667 0 0 1 5.334 0zM19 0H5a5 5 0 0 0-5 5v14a5 5 0 0 0 5 5h14a5 5 0 0 0 5-5V5a5 5 0 0 0-5-5zm.952 15.298c-.132 2.909-1.751 4.521-4.653 4.654-.854.039-1.126.048-3.299.048s-2.444-.009-3.298-.048c-2.908-.133-4.52-1.748-4.654-4.654C4.009 14.445 4 14.173 4 12c0-2.172.009-2.445.048-3.298.134-2.908 1.748-4.521 4.654-4.653C9.556 4.009 9.827 4 12 4s2.445.009 3.299.048c2.908.133 4.523 1.751 4.653 4.653.039.854.048 1.127.048 3.299 0 2.173-.009 2.445-.048 3.298z"/></symbol><symbol id="icon-logo_photoshop" viewBox="0 0 80 80"><path d="M32.833 28.067c-1.233-.5-2.566-.7-3.933-.667-.867 0-1.633 0-2.267.033-.666-.033-1.133 0-1.366.034v11.2c.466.033.9.066 1.3.066h1.766c1.3 0 2.6-.2 3.834-.6 1.066-.3 2-.933 2.733-1.766.7-.834 1.033-1.967 1.033-3.434a5.486 5.486 0 0 0-.766-2.966 4.833 4.833 0 0 0-2.334-1.9ZM65.833 1H14.167C6.333 1 0 7.333 0 15.167V64.83c0 7.833 6.333 14.167 14.167 14.167h51.666C73.667 78.997 80 72.663 80 64.83V15.167C80 7.333 73.667 1 65.833 1ZM41.197 39.833C39.867 41.7 38 43.1 35.833 43.9c-2.266.833-4.766 1.133-7.5 1.133-.8 0-1.333 0-1.666-.033-.334-.033-.8-.033-1.434-.033v10.696a.418.418 0 0 1-.366.47H18.4c-.267 0-.4-.136-.4-.436V21.4c0-.233.1-.367.333-.367.567 0 1.1 0 1.867-.033.8-.033 1.633-.033 2.533-.067.9-.033 1.867-.033 2.9-.066 1.034-.034 2.034-.034 3.034-.034 2.733 0 5 .334 6.866 1.034A11.9 11.9 0 0 1 40 24.6a10.613 10.613 0 0 1 2.433 3.8c.497 1.4.764 2.833.764 4.333.003 2.867-.664 5.234-2 7.1ZM64.833 52.8a8.424 8.424 0 0 1-3.733 2.97c-1.633.697-3.633 1.06-6.037 1.06-1.53 0-3.033-.13-4.53-.43a13.581 13.581 0 0 1-3.4-1.067c-.233-.13-.403-.363-.37-.63v-5.8c0-.096.037-.233.137-.3.097-.066.2-.033.3.034 1.3.766 2.667 1.303 4.133 1.633 1.264.333 2.597.5 3.934.5 1.266 0 2.166-.17 2.766-.47.534-.233.9-.8.9-1.4 0-.47-.266-.9-.8-1.333-.533-.43-1.63-.93-3.263-1.57-1.7-.6-3.263-1.4-4.733-2.397a8.75 8.75 0 0 1-2.537-2.833 7.192 7.192 0 0 1-.763-3.404c0-1.433.4-2.8 1.136-4.033a8.21 8.21 0 0 1 3.497-3.067c1.563-.796 3.53-1.163 5.897-1.163 1.366 0 2.766.1 4.133.3 1 .133 1.967.4 2.867.767.13.033.266.166.333.3.033.133.067.266.067.4V36.3a.41.41 0 0 1-.167.333c-.3.067-.467.067-.6 0-1-.533-2.067-.9-3.2-1.133-1.233-.267-2.467-.433-3.733-.433-.667-.034-1.367.066-2.004.233-.43.1-.8.333-1.033.667-.167.266-.267.6-.267.9 0 .3.134.6.337.866.3.367.697.667 1.133.9.764.4 1.567.767 2.364 1.1 1.803.6 3.536 1.434 5.136 2.434 1.1.696 2 1.633 2.63 2.766.534 1.06.8 2.234.767 3.43a7.737 7.737 0 0 1-1.297 4.437Z"/></symbol></svg>