<svg xmlns="http://www.w3.org/2000/svg"><symbol id="icon-arrow_down" viewBox="0 0 128 128"><g clip-path="url(#a)"><path d="M106.667 53.461v32.08L64 128 21.333 85.541v-32.08L64 95.92l42.667-42.459ZM21.333 0v32.08L64 74.539l42.667-42.459V0L64 42.459 21.333 0Z"/></g><defs><clipPath id="a"><path transform="rotate(90 64 64)" d="M0 0h128v128H0z"/></clipPath></defs></symbol><symbol id="icon-icone_animation" viewBox="0 0 128 128"><g clip-path="url(#a)"><path d="M64 10.667c29.408 0 53.333 23.925 53.333 53.333 0 29.408-23.925 53.333-53.333 53.333-29.408 0-53.333-23.925-53.333-53.333 0-29.408 23.925-53.333 53.333-53.333ZM64 0C28.656 0 0 28.656 0 64s28.656 64 64 64 64-28.656 64-64S99.344 0 64 0ZM48 90.667V37.333L96 64.78 48 90.667Z"/></g><defs><clipPath id="a"><path d="M0 0h128v128H0z"/></clipPath></defs></symbol><symbol id="icon-icone_design" viewBox="0 0 128 128"><g clip-path="url(#a)"><path fill-rule="evenodd" clip-rule="evenodd" d="M56 128H18.667c-7.467 0-13.334-6.08-13.334-13.333v-62.08C1.803 50.064 0 46.18 0 42.235c0-2.006.475-4 1.541-6.022A1398.114 1398.114 0 0 1 18.955 6.06C21.419 2.128 25.413 0 29.86 0c3.387 0 5.184 1.088 7.707 2.555 3.53 2.058 48 28.544 66.731 39.685.464.277 17.952 10.603 18.394 10.907C126.229 55.76 128 59.53 128 63.46c0 2-.491 3.974-1.573 6.027a1364.279 1364.279 0 0 1-17.414 30.16c-3.077 4.907-8.613 6.88-13.312 5.803-2.09 1.248-31.072 20-33.344 21.162C60.155 127.744 58.293 128 56 128ZM16 70.597v44.07a2.664 2.664 0 0 0 2.667 2.666h24.469A3174.654 3174.654 0 0 1 16 70.597Zm8.565-6.602c.283.49 30.299 52.25 30.539 52.581a1.924 1.924 0 0 0 2.427.523c.874-.491 27.098-17.339 27.098-17.339-3.408-2.01-43.434-25.872-60.064-35.765Zm3.515-52.422c-4.87 7.766-17.061 29.467-17.253 29.92a2.01 2.01 0 0 0 .794 2.475c1.072.64 85.456 50.917 86.278 51.045a2.004 2.004 0 0 0 2.01-.928c5.024-8.448 17.099-29.6 17.238-29.872a2.023 2.023 0 0 0-.8-2.48c-1.072-.64-85.243-50.661-85.814-50.912a2.002 2.002 0 0 0-2.453.752Zm8.304 14.374c5.888 0 10.667 4.784 10.667 10.666 0 5.888-4.779 10.667-10.667 10.667s-10.667-4.779-10.667-10.667c0-5.882 4.779-10.666 10.667-10.666Z"/></g><defs><clipPath id="a"><path d="M0 0h128v128H0z"/></clipPath></defs></symbol><symbol id="icon-icone_ecriture" viewBox="0 0 153 128"><path fill-rule="evenodd" clip-rule="evenodd" d="M117.333 128H26.667c-8.838 0-16-7.163-16-16V16c0-8.837 7.162-16 16-16h90.666v128Zm-10.666-21.333h-77.36c-7.334 0-7.334 10.666 0 10.666h77.36v-10.666Zm-16-80H37.333v16h53.334v-16Z"/><g clip-path="url(#a)"><path d="M110.777 65.003 84.653 79.21s-4.463 17.513-11.656 28.68L81.06 116c11.047-7.11 28.68-11.703 28.68-11.703l14.21-26.124-13.173-13.17ZM105.23 98.64c-4.137 1.217-12.133 3.77-19.717 7.357l6.02-6.02a7.333 7.333 0 0 1 4.294-2.1 4.234 4.234 0 0 0 3.71-4.21 4.249 4.249 0 0 0-4.25-4.25 4.236 4.236 0 0 0-4.21 3.71 7.339 7.339 0 0 1-2.097 4.293l-5.93 5.93c3.573-7.58 6.083-15.507 7.28-19.637l19.26-10.476 6.127 6.123-10.487 19.28Zm7.817-40.84s7.16-13.23 11.583-21.8L153 64.37c-8.607 4.403-21.853 11.53-21.853 11.53l-18.1-18.1Z"/></g><defs><clipPath id="a"><path transform="translate(73 36)" d="M0 0h80v80H0z"/></clipPath></defs></symbol><symbol id="icon-icone_integration" viewBox="0 0 128 128"><path d="M128 58.32v11.365L85.333 90.736V78.843L115.413 64l-30.08-14.88V37.264L128 58.32ZM42.667 78.843 12.587 64l30.08-14.88V37.264L0 58.32v11.365l42.667 21.051V78.843Zm37.584-57.51H69.168l-21.392 85.334h11.056l21.419-85.334Z"/></symbol><symbol id="icon-icone_mail" viewBox="0 0 48 48"><path d="M0 6v36h48V6H0Zm43.036 4L24 25.426 4.964 10h38.072ZM4 38V14.366l20 16.208 20-16.208V38H4Z"/></symbol><symbol id="icon-icone_medias" viewBox="0 0 128 128"><path d="M117.333 21.333v64H10.667v-64h106.666ZM128 10.667H0V96h128V10.667Zm-37.333 96H37.333v10.666h53.334v-10.666Z"/></symbol><symbol id="icon-icone_phone" viewBox="0 0 48 48"><path d="M12.352 2.644 18.04 0l8.082 15.78-5.448 2.682c-1.076 2.518 4.318 12.578 6.594 12.744.18-.116 5.342-2.656 5.342-2.656l8.22 15.864s-5.528 2.708-5.708 2.792C19.398 54.388-3.084 10.69 12.352 2.644Zm3.858 2.548L14.164 6.2C3.576 11.724 22.518 48.57 33.46 43.572l1.942-.948-4.542-8.766-2.052 1c-6.326 3.094-16.524-16.438-10.11-19.876l2.014-.994-4.502-8.796Z"/></symbol><symbol id="icon-icone_social" viewBox="0 0 128 128"><g clip-path="url(#a)"><path d="M95.984 96h-5.323c0-8.277.32-9.467-4.693-10.63-7.67-1.77-14.917-3.44-17.563-9.22-.96-2.113-1.605-5.59.827-10.171 5.445-10.288 6.81-19.11 3.744-24.203-3.584-5.947-14.437-5.973-18.053.09-3.072 5.163-1.686 13.937 3.802 24.065 2.48 4.565 1.856 8.053.896 10.176-2.613 5.808-9.792 7.466-17.397 9.216-5.237 1.21-4.907 2.32-4.907 10.677h-5.306L32 92.677c0-6.714.533-10.586 8.47-12.421 8.97-2.075 17.834-3.925 13.573-11.781C41.424 45.195 50.437 32 63.989 32c13.291 0 22.544 12.71 9.958 36.475-4.134 7.808 4.394 9.664 13.573 11.781 7.947 1.835 8.475 5.717 8.475 12.443L95.984 96Zm25.653-11.808c-6.874-1.59-13.274-2.981-10.176-8.837C120.901 57.53 113.968 48 103.995 48c-6.747 0-11.99 4.357-11.99 12.4 0 6.768 3.062 11.6 4.822 15.6h5.589c-.907-4-7.819-13.664-4.085-19.925 2.197-3.691 9.088-3.696 11.274-.064 2.027 3.365.966 9.664-2.848 16.858-2.069 3.91-1.493 6.939-.645 8.79 1.627 3.552 5.211 5.264 9.264 6.442 8.037 2.352 7.296.224 7.296 7.894h5.317l.011-2.47c0-5.04-.395-7.957-6.363-9.333ZM.011 96h5.317c0-7.67-.741-5.541 7.296-7.893 4.059-1.179 7.643-2.891 9.264-6.443.848-1.856 1.424-4.88-.645-8.79-3.814-7.194-4.875-13.493-2.848-16.858 2.186-3.637 9.077-3.632 11.274.064 3.734 6.267-3.178 15.925-4.085 19.925h5.59c1.76-4 4.82-8.832 4.82-15.6C36 52.357 30.758 48 24.012 48c-9.974 0-16.907 9.53-7.467 27.355 3.099 5.861-3.301 7.248-10.176 8.837C.395 85.568 0 88.485 0 93.531L.01 96Z"/></g><defs><clipPath id="a"><path d="M0 0h128v128H0z"/></clipPath></defs></symbol><symbol id="icon-logo_behance_border" viewBox="0 0 24 24"><path d="M8.228 15.01H6V13h2.261c1.878 0 2.003 2.01-.033 2.01zm6.758-2.677h3.018c-.117-1.715-2.73-1.977-3.018 0zM8.182 9H6v2h2.389c1.673 0 1.937-2-.207-2zM24 5v14a5 5 0 0 1-5 5H5a5 5 0 0 1-5-5V5a5 5 0 0 1 5-5h14a5 5 0 0 1 5 5zM14 8h5V7h-5v1zm-3.552 3.618c1.907-.974 1.837-4.55-1.813-4.604H4v9.978h4.311c4.522 0 4.445-4.534 2.137-5.374zm9.487.602c-.274-1.763-1.528-2.95-3.583-2.95-2.094 0-3.352 1.34-3.352 3.947C13 15.848 14.367 17 16.416 17s3.106-1.135 3.4-2h-2.111c-.736.855-2.893.521-2.767-1.353h5.06c.01-.634-.012-1.089-.063-1.427z"/></symbol><symbol id="icon-logo_blender" viewBox="0 0 80 80"><g clip-path="url(#a)"><path d="M41.7 44.047c.153-2.667 1.46-5.02 3.433-6.687a11.414 11.414 0 0 1 7.373-2.633c2.834 0 5.437 1 7.37 2.633 1.974 1.667 3.277 4.02 3.427 6.683.15 2.744-.95 5.287-2.883 7.177a11.297 11.297 0 0 1-7.913 3.127 11.31 11.31 0 0 1-7.92-3.127c-1.934-1.89-3.034-4.433-2.884-7.173M24.5 49.437c.02 1.046.353 3.073.853 4.66a24.573 24.573 0 0 0 5.31 9.19 27.422 27.422 0 0 0 9.29 6.67c3.843 1.694 8 2.557 12.2 2.533a29.88 29.88 0 0 0 12.19-2.573 27.616 27.616 0 0 0 9.283-6.7 24.76 24.76 0 0 0 5.307-9.207 23.213 23.213 0 0 0 .833-10.247A23.743 23.743 0 0 0 76.38 34.5a25.878 25.878 0 0 0-6.173-6.81h.006L45.22 8.5l-.067-.05c-1.64-1.26-4.396-1.253-6.2.007-1.823 1.273-2.03 3.383-.41 4.716l-.003.004 10.42 8.476-31.767.034h-.043c-2.627.003-5.15 1.726-5.65 3.906-.514 2.217 1.267 4.057 4 4.067v.007l16.1-.034L2.866 51.69l-.113.083C.043 53.847-.83 57.3.876 59.483c1.734 2.224 5.417 2.227 8.157.014l15.68-12.83s-.23 1.733-.21 2.77H24.5Zm40.3 5.803c-3.233 3.293-7.753 5.16-12.65 5.167-4.9.013-9.423-1.84-12.657-5.127a15.035 15.035 0 0 1-3.453-5.407 14.274 14.274 0 0 1 .94-11.73 15.675 15.675 0 0 1 3.843-4.57c3.14-2.56 7.137-3.943 11.32-3.95 4.187-.006 8.184 1.367 11.327 3.917 1.6 1.303 2.9 2.847 3.84 4.557a14.267 14.267 0 0 1 1.74 5.686 14.12 14.12 0 0 1-.797 6.037 15.133 15.133 0 0 1-3.45 5.42"/></g><defs><clipPath id="a"><path d="M0 0h80v80H0z"/></clipPath></defs></symbol><symbol id="icon-logo_figma" viewBox="0 0 80 80"><path d="M52.84 29.937H37.547V0H52.84c8.253 0 14.967 6.713 14.967 14.967 0 8.253-6.714 14.97-14.967 14.97Zm-10.39-4.904h10.39c5.55 0 10.063-4.516 10.063-10.063 0-5.547-4.516-10.063-10.063-10.063H42.45v20.126Zm0 4.904H27.16c-8.253 0-14.967-6.714-14.967-14.967S18.907 0 27.16 0h15.293v29.937h-.003ZM27.16 4.903c-5.55 0-10.063 4.517-10.063 10.064 0 5.546 4.513 10.066 10.063 10.066h10.39V4.903H27.16Zm15.29 50.064H27.16c-8.253 0-14.967-6.714-14.967-14.967s6.714-14.967 14.967-14.967h15.293v29.934h-.003Zm-15.29-25.03c-5.55 0-10.063 4.516-10.063 10.063 0 5.547 4.516 10.063 10.063 10.063h10.39V29.937H27.16ZM27.24 80c-8.297 0-15.05-6.713-15.05-14.967 0-8.253 6.713-14.966 14.967-14.966H42.45V64.87c0 8.343-6.823 15.13-15.21 15.13Zm-.08-25.033A10.077 10.077 0 0 0 17.097 65.03c0 5.55 4.55 10.063 10.146 10.063 5.684 0 10.31-4.586 10.31-10.226v-9.9H27.16Zm25.68 0h-.327c-8.253 0-14.966-6.714-14.966-14.967s6.713-14.967 14.966-14.967h.327c8.253 0 14.967 6.714 14.967 14.967S61.093 54.967 52.84 54.967Zm-.323-25.03c-5.55 0-10.064 4.516-10.064 10.063 0 5.547 4.517 10.063 10.064 10.063h.326c5.55 0 10.064-4.516 10.064-10.063 0-5.547-4.517-10.063-10.064-10.063h-.326Z"/></symbol><symbol id="icon-Logo_FLX" viewBox="0 0 506.09 174.85"><defs><style>.cls-1{fill:#f2f2f2}</style></defs><path class="cls-1" d="m393.41 87.23-57.17 87.18h56.11l28.77-44.47V44.18L392.47 0h-56l56.94 87.23zm55.5.45 57.18 87.17h-56.12l-28.76-44.47V44.62L449.85.44h56l-56.94 87.24z" id="X"/><path class="cls-1" d="M254.82.23h56.71l-60.24 134.12h69.42l-20.21 40.36H176.24L254.82.23z" id="L"/><g id="Calque_5" data-name="Calque 5"><path class="cls-1" d="M0 173.88h56.94l26.83-60h73.88l19.53-39.53h-76.47l15.06-32.94h-56L0 173.88z"/><path style="fill:#eddc60" d="M78.12.71h160.94l-19.77 41.41H59.53L78.12.71z"/></g></symbol><symbol id="icon-logo_illustrator" viewBox="0 0 80 80"><path d="M35.1 35.767c-.333-1.034-.633-2.034-.967-3.067a72.14 72.14 0 0 1-.9-2.967c-.266-.933-.5-1.8-.733-2.6h-.067a40.913 40.913 0 0 1-1.133 4.3c-.5 1.6-1 3.267-1.533 4.934a65.434 65.434 0 0 1-1.467 4.666h8.467c-.2-.703-.467-1.533-.767-2.403-.3-.897-.6-1.863-.9-2.863ZM65.833 1H14.167C6.333 1 0 7.333 0 15.167v49.666C0 72.667 6.333 79 14.167 79h51.666C73.667 79 80 72.667 80 64.833V15.167C80 7.333 73.667 1 65.833 1ZM49 56.1h-6.97c-.23.033-.463-.133-.53-.367L38.767 47.8h-12.4l-2.534 7.833c-.066.3-.333.5-.633.47h-6.267c-.366 0-.466-.203-.366-.6L27.3 24.6c.1-.333.2-.7.333-1.1.134-.7.2-1.433.2-2.167-.033-.166.1-.333.267-.366h8.633c.267 0 .4.1.434.266l12.166 34.334c.1.363 0 .533-.333.533Zm11.333-.5c0 .367-.13.533-.43.533h-6.536c-.334 0-.5-.203-.5-.533V29.933c0-.333.136-.466.436-.466h6.6c.3 0 .43.166.43.466V55.6Zm-.696-30.1c-.77.8-1.904 1.233-3.037 1.167-1.1.033-2.167-.4-2.97-1.167a4.33 4.33 0 0 1-1.133-3.067 3.93 3.93 0 0 1 1.196-2.966 4.297 4.297 0 0 1 2.974-1.167c1.303 0 2.296.4 3.033 1.167a4.208 4.208 0 0 1 1.1 2.966 4.23 4.23 0 0 1-1.163 3.067Z"/></symbol><symbol id="icon-logo_instagram_border" viewBox="0 0 24 24"><path d="M15.233 5.488c-.843-.038-1.097-.046-3.233-.046s-2.389.008-3.232.046c-2.17.099-3.181 1.127-3.279 3.279-.039.844-.048 1.097-.048 3.233s.009 2.389.047 3.233c.099 2.148 1.106 3.18 3.279 3.279.843.038 1.097.047 3.233.047 2.137 0 2.39-.008 3.233-.046 2.17-.099 3.18-1.129 3.279-3.279.038-.844.046-1.097.046-3.233s-.008-2.389-.046-3.232c-.099-2.153-1.111-3.182-3.279-3.281zM12 16.108a4.108 4.108 0 1 1 0-8.215 4.108 4.108 0 0 1 0 8.215zm4.271-7.418a.96.96 0 1 1 0-1.92.96.96 0 0 1 0 1.92zM14.667 12a2.667 2.667 0 1 1-5.334 0 2.667 2.667 0 0 1 5.334 0zM19 0H5a5 5 0 0 0-5 5v14a5 5 0 0 0 5 5h14a5 5 0 0 0 5-5V5a5 5 0 0 0-5-5zm.952 15.298c-.132 2.909-1.751 4.521-4.653 4.654-.854.039-1.126.048-3.299.048s-2.444-.009-3.298-.048c-2.908-.133-4.52-1.748-4.654-4.654C4.009 14.445 4 14.173 4 12c0-2.172.009-2.445.048-3.298.134-2.908 1.748-4.521 4.654-4.653C9.556 4.009 9.827 4 12 4s2.445.009 3.299.048c2.908.133 4.523 1.751 4.653 4.653.039.854.048 1.127.048 3.299 0 2.173-.009 2.445-.048 3.298z"/></symbol><symbol id="icon-logo_photoshop" viewBox="0 0 80 80"><path d="M32.833 28.067c-1.233-.5-2.566-.7-3.933-.667-.867 0-1.633 0-2.267.033-.666-.033-1.133 0-1.366.034v11.2c.466.033.9.066 1.3.066h1.766c1.3 0 2.6-.2 3.834-.6 1.066-.3 2-.933 2.733-1.766.7-.834 1.033-1.967 1.033-3.434a5.486 5.486 0 0 0-.766-2.966 4.833 4.833 0 0 0-2.334-1.9ZM65.833 1H14.167C6.333 1 0 7.333 0 15.167V64.83c0 7.833 6.333 14.167 14.167 14.167h51.666C73.667 78.997 80 72.663 80 64.83V15.167C80 7.333 73.667 1 65.833 1ZM41.197 39.833C39.867 41.7 38 43.1 35.833 43.9c-2.266.833-4.766 1.133-7.5 1.133-.8 0-1.333 0-1.666-.033-.334-.033-.8-.033-1.434-.033v10.696a.418.418 0 0 1-.366.47H18.4c-.267 0-.4-.136-.4-.436V21.4c0-.233.1-.367.333-.367.567 0 1.1 0 1.867-.033.8-.033 1.633-.033 2.533-.067.9-.033 1.867-.033 2.9-.066 1.034-.034 2.034-.034 3.034-.034 2.733 0 5 .334 6.866 1.034A11.9 11.9 0 0 1 40 24.6a10.613 10.613 0 0 1 2.433 3.8c.497 1.4.764 2.833.764 4.333.003 2.867-.664 5.234-2 7.1ZM64.833 52.8a8.424 8.424 0 0 1-3.733 2.97c-1.633.697-3.633 1.06-6.037 1.06-1.53 0-3.033-.13-4.53-.43a13.581 13.581 0 0 1-3.4-1.067c-.233-.13-.403-.363-.37-.63v-5.8c0-.096.037-.233.137-.3.097-.066.2-.033.3.034 1.3.766 2.667 1.303 4.133 1.633 1.264.333 2.597.5 3.934.5 1.266 0 2.166-.17 2.766-.47.534-.233.9-.8.9-1.4 0-.47-.266-.9-.8-1.333-.533-.43-1.63-.93-3.263-1.57-1.7-.6-3.263-1.4-4.733-2.397a8.75 8.75 0 0 1-2.537-2.833 7.192 7.192 0 0 1-.763-3.404c0-1.433.4-2.8 1.136-4.033a8.21 8.21 0 0 1 3.497-3.067c1.563-.796 3.53-1.163 5.897-1.163 1.366 0 2.766.1 4.133.3 1 .133 1.967.4 2.867.767.13.033.266.166.333.3.033.133.067.266.067.4V36.3a.41.41 0 0 1-.167.333c-.3.067-.467.067-.6 0-1-.533-2.067-.9-3.2-1.133-1.233-.267-2.467-.433-3.733-.433-.667-.034-1.367.066-2.004.233-.43.1-.8.333-1.033.667-.167.266-.267.6-.267.9 0 .3.134.6.337.866.3.367.697.667 1.133.9.764.4 1.567.767 2.364 1.1 1.803.6 3.536 1.434 5.136 2.434 1.1.696 2 1.633 2.63 2.766.534 1.06.8 2.234.767 3.43a7.737 7.737 0 0 1-1.297 4.437Z"/></symbol><symbol id="icon-logo_premiere" viewBox="0 0 80 80"><g clip-path="url(#a)"><path d="M33.833 28.067A9.766 9.766 0 0 0 29.9 27.4a46.295 46.295 0 0 0-3.633.067v11.2l1.3.066h1.766c1.3 0 2.6-.2 3.834-.6 1.066-.3 2-.933 2.733-1.766.7-.834 1.033-1.967 1.033-3.434a4.833 4.833 0 0 0-3.1-4.866ZM65.833 1H14.167A14.167 14.167 0 0 0 0 15.167v49.666C0 72.667 6.333 79 14.167 79h51.666C73.667 79 80 72.667 80 64.833V15.167C80 7.333 73.667 1 65.833 1ZM42.2 39.833C40.867 41.7 39 43.1 36.833 43.9c-2.266.833-4.766 1.133-7.5 1.133L27.667 45l-1.434-.033v10.7a.398.398 0 0 1-.366.466H19.4c-.267 0-.4-.133-.4-.433V21.4c0-.233.1-.367.333-.367L21.2 21l2.533-.067 2.9-.066 3.034-.034c2.733 0 5 .334 6.866 1.034A11.9 11.9 0 0 1 41 24.6a10.613 10.613 0 0 1 2.433 3.8c.5 1.4.767 2.833.767 4.333 0 2.867-.667 5.234-2 7.1Zm22.733-10.5v6.5c0 .267-.166.367-.533.367a14.5 14.5 0 0 0-6.4 1.233c-.633.3-1.233.7-1.7 1.234v17c0 .333-.133.466-.433.466H49.3a.467.467 0 0 1-.533-.4v-18.6l-.034-2.5-.066-2.6c0-.766-.067-1.5-.134-2.266a.333.333 0 0 1 .234-.367H54.7c.333 0 .6.233.667.533.3.994.447 2.029.433 3.067a12.55 12.55 0 0 1 3.6-2.867 10.334 10.334 0 0 1 5.067-1.3.415.415 0 0 1 .466.367v.133Z"/></g><defs><clipPath id="a"><path d="M0 0h80v80H0z"/></clipPath></defs></symbol><symbol id="icon-logo_visual" viewBox="0 0 80 80"><g clip-path="url(#a)"><path d="M58.61.21a5 5 0 0 0-3.44 1.307h-.003a2.907 2.907 0 0 0-.167.15L28.427 31.053l-15.51-12.72-1.357-1.166a3.334 3.334 0 0 0-3.453-.497l-6.057 2.5a3.288 3.288 0 0 0-.257.12c-.053.03-.105.06-.156.093a3.267 3.267 0 0 0-.127.074 3.293 3.293 0 0 0-.26.193 3.322 3.322 0 0 0-.267.23 3.32 3.32 0 0 0-.106.117 3.292 3.292 0 0 0-.307.386 3.384 3.384 0 0 0-.173.284c-.029.054-.055.11-.08.166-.024.05-.046.1-.067.15a3.302 3.302 0 0 0-.053.147 3.324 3.324 0 0 0-.137.473c-.01.06-.02.12-.027.18a3.336 3.336 0 0 0-.033.444V57.78a3.334 3.334 0 0 0 2.05 3.057l6.057 2.546a3.333 3.333 0 0 0 3.45-.546l1.36-1.167 15.51-12.717 26.576 29.384c.078.074.158.147.24.216.062.057.126.113.19.167.064.048.128.095.194.14.068.05.138.1.21.147.07.044.143.086.216.126.072.042.144.082.217.12.075.037.15.071.227.104.077.035.154.068.233.1.08.03.162.057.243.083a4.84 4.84 0 0 0 .487.133c.075.018.15.033.227.047.083.013.166.024.25.033.083.011.166.02.25.027a4.993 4.993 0 0 0 .5.01 4.909 4.909 0 0 0 .773-.09 4.42 4.42 0 0 0 .2-.04c.09-.022.179-.046.267-.073.076-.02.151-.043.226-.067.079-.03.157-.06.234-.093a5.01 5.01 0 0 0 .3-.124l16.48-7.923a5 5 0 0 0 1.886-1.58l.014-.023a4.97 4.97 0 0 0 .473-.817l.03-.057c.049-.118.094-.238.133-.36.018-.04.034-.082.05-.123a4.948 4.948 0 0 0 .187-.813c.01-.056.019-.111.027-.167.01-.1.016-.2.02-.3.007-.089.01-.178.013-.267V13.13a4.744 4.744 0 0 0-.033-.607 5.001 5.001 0 0 0-2.8-3.9L60.687.7a5 5 0 0 0-2.074-.487L58.61.21ZM60 23.067v33.876L39.34 40.01 60 23.067ZM10 28.58l10.33 11.423-10.333 11.42L10 28.58Z"/></g><defs><clipPath id="a"><path d="M0 0h80v80H0z"/></clipPath></defs></symbol><symbol id="icon-logo_webstorm" viewBox="0 0 80 80"><g clip-path="url(#a)"><path d="M0 0v80h80V0H0Zm59.63 9.63c4.813 0 8.89 1.48 12.223 4.26l-3.703 5.557c-2.963-2.037-5.74-3.334-8.52-3.334-2.78 0-4.26 1.297-4.26 2.964v.186c0 2.224 1.48 2.964 7.037 4.444 6.666 1.853 10.37 4.26 10.37 10v.186c0 6.667-5 10.37-12.037 10.37-5-.186-10-2.036-13.89-5.556l4.26-5.187c2.963 2.407 6.11 4.073 9.813 4.073 2.964 0 4.63-1.11 4.63-3.146v-.187c0-1.853-1.11-2.777-6.666-4.26-6.667-1.667-10.74-3.52-10.74-10.187v-.186c0-6.11 4.813-10 11.48-10l.003.003Zm-53.703.74h7.593l5 19.26 5.74-19.26h5.557l5.556 19.26 5-19.26h7.777l-9.443 33.147H32.41l-5.37-19.26-5.557 19.26h-6.11L5.93 10.37h-.003ZM7.593 65h30v5h-30v-5Z"/></g><defs><clipPath id="a"><path d="M0 0h80v80H0z"/></clipPath></defs></symbol></svg>